<?xml version="1.0" encoding="utf-8"?>
<!-- Generator: Adobe Illustrator 22.0.0, SVG Export Plug-In . SVG Version: 6.00 Build 0)  -->
<svg version="1.1" id="Layer_1" xmlns="http://www.w3.org/2000/svg" xmlns:xlink="http://www.w3.org/1999/xlink" x="0px" y="0px"
	 viewBox="0 0 612 127.5" style="enable-background:new 0 0 612 127.5;" xml:space="preserve">
<style type="text/css">
	.st0{fill:#FFFFFF;}
	.st1{fill-rule:evenodd;clip-rule:evenodd;fill:#FFCC06;}
</style>
<g>
	<path class="st0" d="M547.1,39.8c-2.5,0-4.4,1.3-5.8,3.9c-1.3,2.6-2,6.4-2,11.3v0.3h-6.8V28.9h48.3v26.4h-6.7V55
		c0-4.9-0.7-8.7-2-11.3c-1.3-2.6-3.3-3.9-5.8-3.9h-2v42.9c0,2.7,0.2,4.3,0.7,5c0.5,0.7,1.5,1,3.1,1h3.8v9.9h-30.2v-9.9h3.6
		c1.5,0,2.6-0.3,3-0.8c0.5-0.6,0.7-2.3,0.7-5.2V39.8H547.1z M519.7,28.9v9.8H517c-1.5,0-2.5,0.3-3,0.8c-0.5,0.5-0.7,2.1-0.7,4.6v0.5
		v43.8h3.1c2.9,0,4.9-0.2,6-0.7c1.2-0.5,2.1-1.3,2.8-2.4c0.9-1.4,1.5-3.4,2-5.8c0.4-2.4,0.7-5.8,0.9-10.1h7.1v29.1H492v-9.9h2.3
		c1.6,0,2.6-0.3,3.1-1c0.5-0.6,0.7-2.3,0.7-5v-38c0-2.7-0.2-4.4-0.7-5c-0.4-0.6-1.5-0.9-3.1-0.9H492v-9.8H519.7z M459.1,75.4
		c0,5.4,0.5,9.1,1.7,11.3c1.1,2.2,3,3.3,5.6,3.3c3.1,0,5.4-1.1,6.7-3.2c1.4-2.1,2-5.6,2-10.5V44.7c0-2.7-0.2-4.4-0.7-5
		c-0.4-0.6-1.5-0.9-3.1-0.9H469v-9.8h21.3v9.8h-2.1c-1.6,0-2.6,0.3-3.1,0.9c-0.5,0.6-0.7,2.2-0.7,4.7V78c0,7.4-1.8,13.1-5.3,17
		c-3.5,3.9-8.7,5.8-15.6,5.8c-6.2,0-11-1.9-14.4-5.7c-3.4-3.8-5.1-9.2-5.1-16.2V44.7c0-2.6-0.2-4.3-0.7-5c-0.5-0.7-1.5-1-3.1-1h-2.3
		v-9.8h27.7v9.8h-2.5c-1.6,0-2.7,0.3-3.2,1c-0.5,0.7-0.7,2.3-0.7,5V75.4z M414,98.6v-9.9h2.1c1.7,0,2.8-0.1,3.2-0.4
		c0.4-0.3,0.6-0.8,0.6-1.6c0-0.5,0-1.1-0.1-1.6c-0.1-0.5-0.1-1-0.2-1.4l-1.6-7.5h-12.4l-1.4,6.6c-0.2,1-0.4,1.8-0.5,2.4
		c-0.1,0.6-0.1,1.1-0.1,1.6c0,0.6,0.3,1.1,0.8,1.4c0.6,0.3,1.3,0.5,2.4,0.5h2.3v9.9h-20.5v-9.9h1.7c1.2,0,2.1-0.6,2.9-1.7
		c0.8-1.1,1.5-2.9,2.1-5.5l12.1-52.6h16.6l10.8,52.4c0.7,3.4,1.4,5.5,2,6.3c0.6,0.7,1.6,1.1,2.9,1.1h2.4v9.9H414z M415.7,66.2
		l-4.2-21.1l-3.9,21.1H415.7z M346,72.9h6.6c1.1,5.4,2.9,9.6,5.4,12.6c2.5,3,5.5,4.5,8.9,4.5c2.1,0,3.7-0.7,5-2
		c1.2-1.3,1.9-3.1,1.9-5.2c0-3.3-2.7-6.1-8.1-8.4c-1.8-0.7-3.1-1.3-4.1-1.8c-3.3-1.5-5.8-2.8-7.5-3.8c-1.8-1.1-3-2-3.8-2.9
		c-1.9-2.1-3.2-4.4-4.1-7c-0.9-2.6-1.3-5.5-1.3-8.7c0-7,1.7-12.7,5.1-16.9c3.4-4.3,7.9-6.4,13.6-6.4c2.9,0,5.5,0.4,8,1.3
		c2.5,0.8,4.9,2.1,7.2,3.9l1.2-3.5h6.6v24.2h-7.7c-0.8-5-2.2-8.6-4.3-11c-2.1-2.4-4.9-3.6-8.4-3.6c-2,0-3.7,0.7-5.1,2.1
		c-1.3,1.4-2,3.2-2,5.2c0,3.1,2.5,5.5,7.6,7.1c1.2,0.4,2.2,0.7,2.9,1c7.1,2.5,12.1,5.5,14.9,9.2c2.9,3.7,4.3,8.7,4.3,15
		c0,7-1.8,12.6-5.3,16.8c-3.5,4.2-8.2,6.3-14.2,6.3c-2.7,0-5.3-0.5-7.9-1.4c-2.5-0.9-5-2.3-7.5-4.2l-1.7,3.9H346V72.9z M297.8,72.9
		h6.6c1.1,5.4,2.9,9.6,5.4,12.6c2.5,3,5.5,4.5,8.9,4.5c2.1,0,3.7-0.7,5-2c1.2-1.3,1.9-3.1,1.9-5.2c0-3.3-2.7-6.1-8.1-8.4
		c-1.8-0.7-3.1-1.3-4.1-1.8c-3.3-1.5-5.8-2.8-7.5-3.8c-1.8-1.1-3-2-3.8-2.9c-1.9-2.1-3.2-4.4-4.1-7c-0.9-2.6-1.3-5.5-1.3-8.7
		c0-7,1.7-12.7,5.1-16.9c3.4-4.3,7.9-6.4,13.6-6.4c2.9,0,5.5,0.4,8,1.3c2.5,0.8,4.9,2.1,7.2,3.9l1.2-3.5h6.6v24.2h-7.7
		c-0.8-5-2.2-8.6-4.3-11c-2.1-2.4-4.9-3.6-8.4-3.6c-2,0-3.7,0.7-5.1,2.1c-1.3,1.4-2,3.2-2,5.2c0,3.1,2.5,5.5,7.6,7.1
		c1.2,0.4,2.2,0.7,2.9,1c7.1,2.5,12.1,5.5,14.9,9.2c2.9,3.7,4.3,8.7,4.3,15c0,7-1.8,12.6-5.3,16.8c-3.5,4.2-8.2,6.3-14.2,6.3
		c-2.7,0-5.3-0.5-7.9-1.4c-2.5-0.9-5-2.3-7.5-4.2l-1.7,3.9h-6.3V72.9z M269.3,98.6v-9.9h2.1c1.7,0,2.8-0.1,3.2-0.4
		c0.4-0.3,0.6-0.8,0.6-1.6c0-0.5,0-1.1-0.1-1.6c-0.1-0.5-0.1-1-0.2-1.4l-1.6-7.5h-12.4l-1.4,6.6c-0.2,1-0.4,1.8-0.5,2.4
		c-0.1,0.6-0.1,1.1-0.1,1.6c0,0.6,0.3,1.1,0.8,1.4c0.6,0.3,1.3,0.5,2.4,0.5h2.3v9.9h-20.5v-9.9h1.7c1.2,0,2.1-0.6,2.9-1.7
		c0.8-1.1,1.5-2.9,2.1-5.5l12.1-52.6h16.6l10.8,52.4c0.7,3.4,1.4,5.5,2,6.3c0.6,0.7,1.6,1.1,2.9,1.1h2.4v9.9H269.3z M271,66.2
		l-4.2-21.1l-3.9,21.1H271z M223.4,75.2V58.7h20v16.5H223.4z M185.8,88.4h3.6c3.3,0,5.7-1.9,7.2-5.7c1.4-3.8,2.2-10.1,2.2-19
		c0-8.9-0.7-15.3-2.2-19.1c-1.4-3.8-3.8-5.7-7.2-5.7h-3.6V88.4z M189.4,28.9c9.2,0,16,2.9,20.4,8.6c4.4,5.7,6.7,14.5,6.7,26.2
		c0,11.8-2.2,20.6-6.7,26.3c-4.4,5.7-11.3,8.6-20.4,8.6h-25v-9.9h2.3c1.5,0,2.5-0.3,3-0.8c0.5-0.5,0.7-2.1,0.7-4.7v-0.5v-38
		c0-2.7-0.2-4.4-0.7-5c-0.4-0.6-1.5-0.9-3.1-0.9h-2.2v-9.8H189.4z"/>
	<g>
		<polygon class="st1" points="31.1,98.6 85.7,26.8 122.5,98.6 140.3,98.6 85.7,26.8 48.9,98.6 		"/>
		<path class="st1" d="M72.6,66.2l13.1-39.4l13.1,39.4H72.6z M61.8,98.6L70,73.9h31.3l8.2,24.7H61.8z"/>
	</g>
</g>
</svg>
